REM DIRINDEX 1\2,1\3,1\4,1\5,1\6
REM DIRNAME folder01,folder02,folder03,folder04,folder05,folder06
TITLE ""
FILE "Disc6Track11.mp3" MP3
  TRACK 01 AUDIO
    TITLE "3:cjc030_10742"
    INDEX 01 00:00:00
  TRACK 02 AUDIO
    TITLE "0:"
    INDEX 01 00:01:01
  TRACK 03 AUDIO
    TITLE "4:cjc030_10743"
    INDEX 01 00:01:13
  TRACK 04 AUDIO
    TITLE "0:"
    INDEX 01 00:04:11
  TRACK 05 AUDIO
    TITLE "5:cjc030_10744"
    INDEX 01 00:04:23
  TRACK 06 AUDIO
    TITLE "0:"
    INDEX 01 00:05:28
  TRACK 07 AUDIO
    TITLE "6:cjc030_10745"
    INDEX 01 00:05:40
  TRACK 08 AUDIO
    TITLE "0:"
    INDEX 01 00:08:26
  TRACK 09 AUDIO
    TITLE "3:cjc030_10746"
    INDEX 01 00:08:73
  TRACK 10 AUDIO
    TITLE "0:"
    INDEX 01 00:10:10
  TRACK 11 AUDIO
    TITLE "4:cjc030_10747"
    INDEX 01 00:10:21
  TRACK 12 AUDIO
    TITLE "0:"
    INDEX 01 00:16:46
  TRACK 13 AUDIO
    TITLE "5:cjc030_10748"
    INDEX 01 00:16:55
  TRACK 14 AUDIO
    TITLE "0:"
    INDEX 01 00:17:72
  TRACK 15 AUDIO
    TITLE "6:cjc030_10749"
    INDEX 01 00:18:03
  TRACK 16 AUDIO
    TITLE "0:"
    INDEX 01 00:23:34
  TRACK 17 AUDIO
    TITLE "3:cjc030_10750"
    INDEX 01 00:24:08
  TRACK 18 AUDIO
    TITLE "0:"
    INDEX 01 00:25:15
  TRACK 19 AUDIO
    TITLE "4:cjc030_10751"
    INDEX 01 00:25:25
  TRACK 20 AUDIO
    TITLE "0:"
    INDEX 01 00:27:28
  TRACK 21 AUDIO
    TITLE "5:cjc030_10752"
    INDEX 01 00:27:38
  TRACK 22 AUDIO
    TITLE "0:"
    INDEX 01 00:28:47
  TRACK 23 AUDIO
    TITLE "3:cjc030_10753"
    INDEX 01 00:29:27
  TRACK 24 AUDIO
    TITLE "0:"
    INDEX 01 00:30:28
  TRACK 25 AUDIO
    TITLE "4:cjc030_10754"
    INDEX 01 00:30:40
  TRACK 26 AUDIO
    TITLE "0:"
    INDEX 01 00:33:44
  TRACK 27 AUDIO
    TITLE "5:cjc030_10755"
    INDEX 01 00:33:52
  TRACK 28 AUDIO
    TITLE "0:"
    INDEX 01 00:34:55
  TRACK 29 AUDIO
    TITLE "6:cjc030_10756"
    INDEX 01 00:34:65
  TRACK 30 AUDIO
    TITLE "0:"
    INDEX 01 00:37:73
  TRACK 31 AUDIO
    TITLE "3:cjc030_10757"
    INDEX 01 00:38:45
  TRACK 32 AUDIO
    TITLE "0:"
    INDEX 01 00:39:56
  TRACK 33 AUDIO
    TITLE "4:cjc030_10758"
    INDEX 01 00:39:68
  TRACK 34 AUDIO
    TITLE "0:"
    INDEX 01 00:41:06
  TRACK 35 AUDIO
    TITLE "5:cjc030_10759"
    INDEX 01 00:41:16
  TRACK 36 AUDIO
    TITLE "0:"
    INDEX 01 00:42:25
  TRACK 37 AUDIO
    TITLE "3:cjc030_10760"
    INDEX 01 00:43:11
  TRACK 38 AUDIO
    TITLE "0:"
    INDEX 01 00:44:14
  TRACK 39 AUDIO
    TITLE "4:cjc030_10761"
    INDEX 01 00:44:22
  TRACK 40 AUDIO
    TITLE "0:"
    INDEX 01 00:46:27
  TRACK 41 AUDIO
    TITLE "5:cjc030_10762"
    INDEX 01 00:46:37
  TRACK 42 AUDIO
    TITLE "0:"
    INDEX 01 00:47:40
  TRACK 43 AUDIO
    TITLE "6:cjc030_10763"
    INDEX 01 00:47:52
  TRACK 44 AUDIO
    TITLE "0:"
    INDEX 01 00:49:55
  TRACK 45 AUDIO
    TITLE "3:cjc030_10764"
    INDEX 01 00:50:29
  TRACK 46 AUDIO
    TITLE "0:"
    INDEX 01 00:51:24
  TRACK 47 AUDIO
    TITLE "4:cjc030_10765"
    INDEX 01 00:51:34
  TRACK 48 AUDIO
    TITLE "0:"
    INDEX 01 00:54:15
  TRACK 49 AUDIO
    TITLE "5:cjc030_10766"
    INDEX 01 00:54:25
  TRACK 50 AUDIO
    TITLE "0:"
    INDEX 01 00:55:22
  TRACK 51 AUDIO
    TITLE "6:cjc030_10767"
    INDEX 01 00:55:34
  TRACK 52 AUDIO
    TITLE "0:"
    INDEX 01 00:56:59
  TRACK 53 AUDIO
    TITLE "3:cjc030_10768"
    INDEX 01 00:57:35
  TRACK 54 AUDIO
    TITLE "0:"
    INDEX 01 00:58:26
  TRACK 55 AUDIO
    TITLE "4:cjc030_10769"
    INDEX 01 00:58:38
  TRACK 56 AUDIO
    TITLE "0:"
    INDEX 01 01:01:52
  TRACK 57 AUDIO
    TITLE "5:cjc030_10770"
    INDEX 01 01:01:58
  TRACK 58 AUDIO
    TITLE "0:"
    INDEX 01 01:02:57
  TRACK 59 AUDIO
    TITLE "6:cjc030_10771"
    INDEX 01 01:02:67
  TRACK 60 AUDIO
    TITLE "0:"
    INDEX 01 01:04:48
